<?xml version="1.0" encoding="UTF-8"?>
<svg fill="#4267B2" width="100pt" height="100pt" version="1.1" viewBox="0 0 100 100" xmlns="http://www.w3.org/2000/svg">
 <g>
  <path d="m91.301 75.801h-3.8008v6.1992h10v-10h-6.1992z"/>
  <path d="m51.801 75.801h11.898v6.1992h-11.898z"/>
  <path d="m69.602 75.801h11.898v6.1992h-11.898z"/>
  <path d="m18 18.5h6.1992v11.898h-6.1992z"/>
  <path d="m18 36.301h6.1992v11.898h-6.1992z"/>
  <path d="m24.199 8.6992h3.8008v-6.1992h-10v10h6.1992z"/>
  <path d="m69.602 2.5h11.898v6.1992h-11.898z"/>
  <path d="m51.801 2.5h11.898v6.1992h-11.898z"/>
  <path d="m34 2.5h11.898v6.1992h-11.898z"/>
  <path d="m87.5 2.5v6.1992h3.8008v3.8008h6.1992v-10z"/>
  <path d="m91.301 36.301h6.1992v11.898h-6.1992z"/>
  <path d="m91.301 54.102h6.1992v11.898h-6.1992z"/>
  <path d="m91.301 18.5h6.1992v11.898h-6.1992z"/>
  <path d="m2.5 53.801h43.699v43.699h-43.699z"/>
  <path d="m61.801 23.398h10.398l-22.5 22.5 4.4023 4.4023 22.5-22.5v10.398h6.1992v-21h-21z"/>
 </g>
</svg>
