<?xml version="1.0" encoding="utf-8"?>
<!-- Generator: Adobe Illustrator 24.3.0, SVG Export Plug-In . SVG Version: 6.00 Build 0)  -->
<svg version="1.1" id="Layer_1" xmlns="http://www.w3.org/2000/svg" xmlns:xlink="http://www.w3.org/1999/xlink" x="0px" y="0px"
	 viewBox="0 0 100 100" style="enable-background:new 0 0 100 100;" xml:space="preserve">
<style type="text/css">
	.st0{fill:#231F20;stroke:#231F20;stroke-miterlimit:10;}
	.st1{fill:#FFFFFF;}
</style>
<rect class="st0" width="100" height="100"/>
<g>
	<path class="st1" d="M91.3,75.8h-3.8V82h10V72h-6.2V75.8z"/>
	<path class="st1" d="M51.8,75.8h11.9V82H51.8V75.8z"/>
	<path class="st1" d="M69.6,75.8h11.9V82H69.6V75.8z"/>
	<path class="st1" d="M18,18.5h6.2v11.9H18V18.5z"/>
	<path class="st1" d="M18,36.3h6.2v11.9H18V36.3z"/>
	<path class="st1" d="M24.2,8.7H28V2.5H18v10h6.2V8.7z"/>
	<path class="st1" d="M69.6,2.5h11.9v6.2H69.6V2.5z"/>
	<path class="st1" d="M51.8,2.5h11.9v6.2H51.8V2.5z"/>
	<path class="st1" d="M34,2.5h11.9v6.2H34V2.5z"/>
	<path class="st1" d="M87.5,2.5v6.2h3.8v3.8h6.2v-10H87.5z"/>
	<path class="st1" d="M91.3,36.3h6.2v11.9h-6.2V36.3z"/>
	<path class="st1" d="M91.3,54.1h6.2V66h-6.2V54.1z"/>
	<path class="st1" d="M91.3,18.5h6.2v11.9h-6.2V18.5z"/>
	<path class="st1" d="M2.5,53.8h43.7v43.7H2.5V53.8z"/>
	<path class="st1" d="M61.8,23.4h10.4L49.7,45.9l4.4,4.4l22.5-22.5v10.4h6.2v-21h-21L61.8,23.4z"/>
</g>
</svg>
